<svg xmlns="http://www.w3.org/2000/svg" width="980" height="460" viewBox="0 0 980 460">
<rect width="980" height="460" fill="#fff"/>
<g font-family="Arial" font-size="13" fill="#17212b">
<text x="40" y="28" font-size="20">UE1: QPSK and complex baseband OFDM</text>
<text x="95" y="57">Received QPSK symbols (15 dB reference SNR)</text>
<text x="540" y="57">First OFDM symbol, including cyclic prefix</text>
<rect x="65" y="85" width="345" height="290" fill="none" stroke="#77818b"/>
<text x="65.0" y="395" text-anchor="middle">-1.5</text>
<text x="55" y="379.0" text-anchor="end">-1.5</text>
<text x="237.5" y="395" text-anchor="middle">0</text>
<text x="55" y="234.0" text-anchor="end">0</text>
<text x="410.0" y="395" text-anchor="middle">1.5</text>
<text x="55" y="89.0" text-anchor="end">1.5</text>
<circle cx="315.30" cy="295.22" r="2.4" fill="#1769aa" opacity="0.65"/>
<circle cx="322.10" cy="163.20" r="2.4" fill="#1769aa" opacity="0.65"/>
<circle cx="154.89" cy="163.22" r="2.4" fill="#1769aa" opacity="0.65"/>
<circle cx="318.27" cy="163.47" r="2.4" fill="#1769aa" opacity="0.65"/>
<circle cx="317.59" cy="297.77" r="2.4" fill="#1769aa" opacity="0.65"/>
<circle cx="158.05" cy="156.82" r="2.4" fill="#1769aa" opacity="0.65"/>
<circle cx="321.12" cy="298.73" r="2.4" fill="#1769aa" opacity="0.65"/>
<circle cx="317.75" cy="297.41" r="2.4" fill="#1769aa" opacity="0.65"/>
<circle cx="317.41" cy="295.87" r="2.4" fill="#1769aa" opacity="0.65"/>
<circle cx="157.16" cy="161.38" r="2.4" fill="#1769aa" opacity="0.65"/>
<circle cx="154.39" cy="296.48" r="2.4" fill="#1769aa" opacity="0.65"/>
<circle cx="315.71" cy="163.54" r="2.4" fill="#1769aa" opacity="0.65"/>
<circle cx="319.36" cy="297.41" r="2.4" fill="#1769aa" opacity="0.65"/>
<circle cx="153.60" cy="162.29" r="2.4" fill="#1769aa" opacity="0.65"/>
<circle cx="158.18" cy="299.07" r="2.4" fill="#1769aa" opacity="0.65"/>
<circle cx="322.77" cy="160.91" r="2.4" fill="#1769aa" opacity="0.65"/>
<circle cx="319.55" cy="300.08" r="2.4" fill="#1769aa" opacity="0.65"/>
<circle cx="152.71" cy="159.36" r="2.4" fill="#1769aa" opacity="0.65"/>
<circle cx="163.14" cy="296.77" r="2.4" fill="#1769aa" opacity="0.65"/>
<circle cx="156.16" cy="301.47" r="2.4" fill="#1769aa" opacity="0.65"/>
<circle cx="317.89" cy="159.68" r="2.4" fill="#1769aa" opacity="0.65"/>
<circle cx="159.90" cy="158.42" r="2.4" fill="#1769aa" opacity="0.65"/>
<circle cx="317.83" cy="159.14" r="2.4" fill="#1769aa" opacity="0.65"/>
<circle cx="314.51" cy="155.47" r="2.4" fill="#1769aa" opacity="0.65"/>
<circle cx="322.38" cy="307.21" r="2.4" fill="#1769aa" opacity="0.65"/>
<circle cx="158.29" cy="297.84" r="2.4" fill="#1769aa" opacity="0.65"/>
<circle cx="158.79" cy="155.90" r="2.4" fill="#1769aa" opacity="0.65"/>
<circle cx="323.56" cy="299.43" r="2.4" fill="#1769aa" opacity="0.65"/>
<circle cx="318.92" cy="307.51" r="2.4" fill="#1769aa" opacity="0.65"/>
<circle cx="154.56" cy="163.53" r="2.4" fill="#1769aa" opacity="0.65"/>
<circle cx="154.35" cy="303.00" r="2.4" fill="#1769aa" opacity="0.65"/>
<circle cx="152.70" cy="292.99" r="2.4" fill="#1769aa" opacity="0.65"/>
<circle cx="323.29" cy="297.24" r="2.4" fill="#1769aa" opacity="0.65"/>
<circle cx="153.99" cy="296.76" r="2.4" fill="#1769aa" opacity="0.65"/>
<circle cx="317.73" cy="296.40" r="2.4" fill="#1769aa" opacity="0.65"/>
<circle cx="323.38" cy="296.51" r="2.4" fill="#1769aa" opacity="0.65"/>
<circle cx="316.67" cy="157.43" r="2.4" fill="#1769aa" opacity="0.65"/>
<circle cx="163.78" cy="161.53" r="2.4" fill="#1769aa" opacity="0.65"/>
<circle cx="319.18" cy="157.85" r="2.4" fill="#1769aa" opacity="0.65"/>
<circle cx="314.45" cy="161.88" r="2.4" fill="#1769aa" opacity="0.65"/>
<circle cx="323.56" cy="297.81" r="2.4" fill="#1769aa" opacity="0.65"/>
<circle cx="158.37" cy="157.58" r="2.4" fill="#1769aa" opacity="0.65"/>
<circle cx="317.04" cy="162.86" r="2.4" fill="#1769aa" opacity="0.65"/>
<circle cx="316.16" cy="297.75" r="2.4" fill="#1769aa" opacity="0.65"/>
<circle cx="315.96" cy="297.62" r="2.4" fill="#1769aa" opacity="0.65"/>
<circle cx="155.18" cy="297.56" r="2.4" fill="#1769aa" opacity="0.65"/>
<circle cx="318.48" cy="159.53" r="2.4" fill="#1769aa" opacity="0.65"/>
<circle cx="155.49" cy="163.52" r="2.4" fill="#1769aa" opacity="0.65"/>
<circle cx="313.77" cy="297.77" r="2.4" fill="#1769aa" opacity="0.65"/>
<circle cx="155.74" cy="160.62" r="2.4" fill="#1769aa" opacity="0.65"/>
<circle cx="321.82" cy="299.45" r="2.4" fill="#1769aa" opacity="0.65"/>
<circle cx="321.00" cy="297.09" r="2.4" fill="#1769aa" opacity="0.65"/>
<circle cx="318.15" cy="162.21" r="2.4" fill="#1769aa" opacity="0.65"/>
<circle cx="154.02" cy="161.82" r="2.4" fill="#1769aa" opacity="0.65"/>
<circle cx="322.78" cy="161.12" r="2.4" fill="#1769aa" opacity="0.65"/>
<circle cx="321.07" cy="163.03" r="2.4" fill="#1769aa" opacity="0.65"/>
<circle cx="317.82" cy="297.86" r="2.4" fill="#1769aa" opacity="0.65"/>
<circle cx="321.69" cy="163.31" r="2.4" fill="#1769aa" opacity="0.65"/>
<circle cx="157.08" cy="300.02" r="2.4" fill="#1769aa" opacity="0.65"/>
<circle cx="160.02" cy="160.18" r="2.4" fill="#1769aa" opacity="0.65"/>
<circle cx="324.13" cy="298.34" r="2.4" fill="#1769aa" opacity="0.65"/>
<circle cx="153.09" cy="163.13" r="2.4" fill="#1769aa" opacity="0.65"/>
<circle cx="317.10" cy="163.10" r="2.4" fill="#1769aa" opacity="0.65"/>
<circle cx="315.77" cy="301.00" r="2.4" fill="#1769aa" opacity="0.65"/>
<circle cx="320.63" cy="298.84" r="2.4" fill="#1769aa" opacity="0.65"/>
<circle cx="159.87" cy="296.26" r="2.4" fill="#1769aa" opacity="0.65"/>
<circle cx="317.93" cy="162.17" r="2.4" fill="#1769aa" opacity="0.65"/>
<circle cx="152.65" cy="162.26" r="2.4" fill="#1769aa" opacity="0.65"/>
<circle cx="316.33" cy="301.65" r="2.4" fill="#1769aa" opacity="0.65"/>
<circle cx="157.79" cy="298.27" r="2.4" fill="#1769aa" opacity="0.65"/>
<circle cx="316.81" cy="297.50" r="2.4" fill="#1769aa" opacity="0.65"/>
<circle cx="322.17" cy="299.72" r="2.4" fill="#1769aa" opacity="0.65"/>
<circle cx="324.56" cy="301.54" r="2.4" fill="#1769aa" opacity="0.65"/>
<circle cx="153.29" cy="298.22" r="2.4" fill="#1769aa" opacity="0.65"/>
<circle cx="317.23" cy="301.11" r="2.4" fill="#1769aa" opacity="0.65"/>
<circle cx="314.70" cy="161.57" r="2.4" fill="#1769aa" opacity="0.65"/>
<circle cx="316.47" cy="292.56" r="2.4" fill="#1769aa" opacity="0.65"/>
<circle cx="153.20" cy="161.93" r="2.4" fill="#1769aa" opacity="0.65"/>
<circle cx="157.26" cy="299.13" r="2.4" fill="#1769aa" opacity="0.65"/>
<circle cx="156.68" cy="301.16" r="2.4" fill="#1769aa" opacity="0.65"/>
<circle cx="323.04" cy="159.47" r="2.4" fill="#1769aa" opacity="0.65"/>
<circle cx="161.02" cy="160.94" r="2.4" fill="#1769aa" opacity="0.65"/>
<circle cx="154.22" cy="299.06" r="2.4" fill="#1769aa" opacity="0.65"/>
<circle cx="153.80" cy="165.74" r="2.4" fill="#1769aa" opacity="0.65"/>
<circle cx="321.33" cy="165.90" r="2.4" fill="#1769aa" opacity="0.65"/>
<circle cx="157.76" cy="161.25" r="2.4" fill="#1769aa" opacity="0.65"/>
<circle cx="325.09" cy="161.18" r="2.4" fill="#1769aa" opacity="0.65"/>
<circle cx="315.62" cy="159.26" r="2.4" fill="#1769aa" opacity="0.65"/>
<circle cx="317.46" cy="300.66" r="2.4" fill="#1769aa" opacity="0.65"/>
<circle cx="160.92" cy="302.32" r="2.4" fill="#1769aa" opacity="0.65"/>
<circle cx="321.45" cy="298.44" r="2.4" fill="#1769aa" opacity="0.65"/>
<circle cx="155.98" cy="295.81" r="2.4" fill="#1769aa" opacity="0.65"/>
<circle cx="313.96" cy="304.55" r="2.4" fill="#1769aa" opacity="0.65"/>
<circle cx="153.86" cy="165.19" r="2.4" fill="#1769aa" opacity="0.65"/>
<circle cx="317.29" cy="299.28" r="2.4" fill="#1769aa" opacity="0.65"/>
<circle cx="318.37" cy="298.74" r="2.4" fill="#1769aa" opacity="0.65"/>
<circle cx="323.34" cy="295.64" r="2.4" fill="#1769aa" opacity="0.65"/>
<circle cx="156.55" cy="161.72" r="2.4" fill="#1769aa" opacity="0.65"/>
<circle cx="155.47" cy="297.08" r="2.4" fill="#1769aa" opacity="0.65"/>
<circle cx="318.98" cy="162.97" r="2.4" fill="#1769aa" opacity="0.65"/>
<circle cx="315.73" cy="298.12" r="2.4" fill="#1769aa" opacity="0.65"/>
<circle cx="156.27" cy="161.74" r="2.4" fill="#1769aa" opacity="0.65"/>
<circle cx="320.98" cy="160.05" r="2.4" fill="#1769aa" opacity="0.65"/>
<circle cx="156.16" cy="299.56" r="2.4" fill="#1769aa" opacity="0.65"/>
<circle cx="315.63" cy="294.45" r="2.4" fill="#1769aa" opacity="0.65"/>
<circle cx="154.62" cy="163.82" r="2.4" fill="#1769aa" opacity="0.65"/>
<circle cx="154.66" cy="297.68" r="2.4" fill="#1769aa" opacity="0.65"/>
<circle cx="155.71" cy="294.96" r="2.4" fill="#1769aa" opacity="0.65"/>
<circle cx="321.80" cy="297.16" r="2.4" fill="#1769aa" opacity="0.65"/>
<circle cx="156.62" cy="158.21" r="2.4" fill="#1769aa" opacity="0.65"/>
<circle cx="156.96" cy="302.28" r="2.4" fill="#1769aa" opacity="0.65"/>
<circle cx="314.35" cy="298.27" r="2.4" fill="#1769aa" opacity="0.65"/>
<circle cx="317.49" cy="294.58" r="2.4" fill="#1769aa" opacity="0.65"/>
<circle cx="152.83" cy="159.96" r="2.4" fill="#1769aa" opacity="0.65"/>
<circle cx="319.22" cy="298.89" r="2.4" fill="#1769aa" opacity="0.65"/>
<circle cx="316.64" cy="299.85" r="2.4" fill="#1769aa" opacity="0.65"/>
<circle cx="317.96" cy="164.46" r="2.4" fill="#1769aa" opacity="0.65"/>
<circle cx="158.86" cy="163.29" r="2.4" fill="#1769aa" opacity="0.65"/>
<circle cx="314.86" cy="162.83" r="2.4" fill="#1769aa" opacity="0.65"/>
<circle cx="314.23" cy="159.20" r="2.4" fill="#1769aa" opacity="0.65"/>
<circle cx="317.27" cy="295.73" r="2.4" fill="#1769aa" opacity="0.65"/>
<circle cx="157.67" cy="297.62" r="2.4" fill="#1769aa" opacity="0.65"/>
<circle cx="314.87" cy="294.88" r="2.4" fill="#1769aa" opacity="0.65"/>
<circle cx="316.78" cy="163.00" r="2.4" fill="#1769aa" opacity="0.65"/>
<circle cx="320.39" cy="296.81" r="2.4" fill="#1769aa" opacity="0.65"/>
<circle cx="155.16" cy="161.39" r="2.4" fill="#1769aa" opacity="0.65"/>
<circle cx="154.27" cy="297.29" r="2.4" fill="#1769aa" opacity="0.65"/>
<circle cx="161.16" cy="302.71" r="2.4" fill="#1769aa" opacity="0.65"/>
<circle cx="321.79" cy="170.15" r="2.4" fill="#1769aa" opacity="0.65"/>
<circle cx="160.11" cy="167.59" r="2.4" fill="#1769aa" opacity="0.65"/>
<circle cx="322.06" cy="160.35" r="2.4" fill="#1769aa" opacity="0.65"/>
<circle cx="318.36" cy="159.47" r="2.4" fill="#1769aa" opacity="0.65"/>
<circle cx="324.09" cy="295.21" r="2.4" fill="#1769aa" opacity="0.65"/>
<circle cx="153.18" cy="296.04" r="2.4" fill="#1769aa" opacity="0.65"/>
<circle cx="321.90" cy="301.77" r="2.4" fill="#1769aa" opacity="0.65"/>
<circle cx="319.19" cy="158.78" r="2.4" fill="#1769aa" opacity="0.65"/>
<circle cx="319.61" cy="297.11" r="2.4" fill="#1769aa" opacity="0.65"/>
<circle cx="159.53" cy="158.57" r="2.4" fill="#1769aa" opacity="0.65"/>
<circle cx="156.80" cy="159.58" r="2.4" fill="#1769aa" opacity="0.65"/>
<circle cx="323.18" cy="160.70" r="2.4" fill="#1769aa" opacity="0.65"/>
<circle cx="319.24" cy="298.95" r="2.4" fill="#1769aa" opacity="0.65"/>
<circle cx="153.79" cy="162.97" r="2.4" fill="#1769aa" opacity="0.65"/>
<circle cx="153.15" cy="161.66" r="2.4" fill="#1769aa" opacity="0.65"/>
<circle cx="318.88" cy="298.19" r="2.4" fill="#1769aa" opacity="0.65"/>
<circle cx="321.29" cy="299.84" r="2.4" fill="#1769aa" opacity="0.65"/>
<circle cx="155.41" cy="299.87" r="2.4" fill="#1769aa" opacity="0.65"/>
<circle cx="322.23" cy="165.05" r="2.4" fill="#1769aa" opacity="0.65"/>
<circle cx="154.93" cy="299.65" r="2.4" fill="#1769aa" opacity="0.65"/>
<circle cx="321.02" cy="162.71" r="2.4" fill="#1769aa" opacity="0.65"/>
<circle cx="156.13" cy="159.73" r="2.4" fill="#1769aa" opacity="0.65"/>
<circle cx="317.77" cy="163.54" r="2.4" fill="#1769aa" opacity="0.65"/>
<circle cx="323.78" cy="163.84" r="2.4" fill="#1769aa" opacity="0.65"/>
<circle cx="315.69" cy="299.20" r="2.4" fill="#1769aa" opacity="0.65"/>
<circle cx="158.05" cy="299.41" r="2.4" fill="#1769aa" opacity="0.65"/>
<circle cx="320.25" cy="162.86" r="2.4" fill="#1769aa" opacity="0.65"/>
<circle cx="156.93" cy="299.54" r="2.4" fill="#1769aa" opacity="0.65"/>
<circle cx="320.65" cy="300.83" r="2.4" fill="#1769aa" opacity="0.65"/>
<circle cx="157.70" cy="162.87" r="2.4" fill="#1769aa" opacity="0.65"/>
<circle cx="159.23" cy="163.81" r="2.4" fill="#1769aa" opacity="0.65"/>
<circle cx="320.78" cy="298.62" r="2.4" fill="#1769aa" opacity="0.65"/>
<circle cx="318.63" cy="299.82" r="2.4" fill="#1769aa" opacity="0.65"/>
<circle cx="150.23" cy="161.25" r="2.4" fill="#1769aa" opacity="0.65"/>
<circle cx="158.21" cy="299.52" r="2.4" fill="#1769aa" opacity="0.65"/>
<circle cx="321.21" cy="296.94" r="2.4" fill="#1769aa" opacity="0.65"/>
<circle cx="316.67" cy="300.29" r="2.4" fill="#1769aa" opacity="0.65"/>
<circle cx="149.31" cy="300.71" r="2.4" fill="#1769aa" opacity="0.65"/>
<circle cx="318.22" cy="301.30" r="2.4" fill="#1769aa" opacity="0.65"/>
<circle cx="319.86" cy="296.61" r="2.4" fill="#1769aa" opacity="0.65"/>
<circle cx="317.84" cy="300.45" r="2.4" fill="#1769aa" opacity="0.65"/>
<circle cx="155.83" cy="165.06" r="2.4" fill="#1769aa" opacity="0.65"/>
<circle cx="153.49" cy="302.19" r="2.4" fill="#1769aa" opacity="0.65"/>
<circle cx="317.08" cy="164.86" r="2.4" fill="#1769aa" opacity="0.65"/>
<circle cx="319.88" cy="301.08" r="2.4" fill="#1769aa" opacity="0.65"/>
<circle cx="158.09" cy="162.51" r="2.4" fill="#1769aa" opacity="0.65"/>
<circle cx="314.70" cy="160.95" r="2.4" fill="#1769aa" opacity="0.65"/>
<circle cx="320.61" cy="296.24" r="2.4" fill="#1769aa" opacity="0.65"/>
<circle cx="316.97" cy="296.90" r="2.4" fill="#1769aa" opacity="0.65"/>
<circle cx="155.71" cy="298.43" r="2.4" fill="#1769aa" opacity="0.65"/>
<circle cx="317.01" cy="298.46" r="2.4" fill="#1769aa" opacity="0.65"/>
<circle cx="315.88" cy="162.04" r="2.4" fill="#1769aa" opacity="0.65"/>
<circle cx="313.69" cy="297.22" r="2.4" fill="#1769aa" opacity="0.65"/>
<circle cx="157.71" cy="161.19" r="2.4" fill="#1769aa" opacity="0.65"/>
<circle cx="157.31" cy="161.97" r="2.4" fill="#1769aa" opacity="0.65"/>
<circle cx="317.57" cy="297.06" r="2.4" fill="#1769aa" opacity="0.65"/>
<circle cx="320.73" cy="301.15" r="2.4" fill="#1769aa" opacity="0.65"/>
<circle cx="154.14" cy="156.77" r="2.4" fill="#1769aa" opacity="0.65"/>
<circle cx="154.64" cy="300.10" r="2.4" fill="#1769aa" opacity="0.65"/>
<circle cx="156.04" cy="299.19" r="2.4" fill="#1769aa" opacity="0.65"/>
<circle cx="314.88" cy="296.26" r="2.4" fill="#1769aa" opacity="0.65"/>
<circle cx="153.54" cy="160.82" r="2.4" fill="#1769aa" opacity="0.65"/>
<circle cx="153.15" cy="301.63" r="2.4" fill="#1769aa" opacity="0.65"/>
<circle cx="155.93" cy="162.45" r="2.4" fill="#1769aa" opacity="0.65"/>
<path d="M151.18272016354703,298.35365551469954h10 M156.18272016354703,293.35365551469954v10" stroke="#c43b28" stroke-width="2"/>
<path d="M151.18272016354703,161.6463444853004h10 M156.18272016354703,156.6463444853004v10" stroke="#c43b28" stroke-width="2"/>
<path d="M313.81727983645294,298.35365551469954h10 M318.81727983645294,293.35365551469954v10" stroke="#c43b28" stroke-width="2"/>
<path d="M313.81727983645294,161.6463444853004h10 M318.81727983645294,156.6463444853004v10" stroke="#c43b28" stroke-width="2"/>
<text x="230" y="424">I (normalized)</text>
<text x="17" y="245" transform="rotate(-90 17 245)">Q (normalized)</text>
<rect x="525" y="85" width="410" height="290" fill="none" stroke="#77818b"/>
<rect x="525" y="85" width="29.93" height="290" fill="#999" opacity="0.15"/>
<polyline points="525.00,173.83 527.99,188.48 530.99,176.51 533.98,153.10 536.97,187.42 539.96,224.81 542.96,203.85 545.95,192.62 548.94,217.49 551.93,195.99 554.93,150.15 557.92,192.50 560.91,274.02 563.91,261.11 566.90,206.96 569.89,238.22 572.88,297.50 575.88,276.95 578.87,235.65 581.86,255.71 584.85,276.49 587.85,239.89 590.84,207.85 593.83,231.60 596.82,272.14 599.82,290.50 602.81,282.33 605.80,238.23 608.80,174.32 611.79,155.25 614.78,210.01 617.77,280.45 620.77,303.78 623.76,291.58 626.75,285.14 629.74,277.71 632.74,239.87 635.73,201.31 638.72,218.36 641.72,251.03 644.71,200.95 647.70,103.91 650.69,110.23 653.69,224.48 656.68,281.90 659.67,235.83 662.66,217.56 665.66,268.64 668.65,285.04 671.64,246.64 674.64,233.50 677.63,236.42 680.62,203.05 683.61,194.14 686.61,262.56 689.60,308.79 692.59,262.57 695.58,231.29 698.58,288.17 701.57,321.70 704.56,252.90 707.55,186.83 710.55,214.73 713.54,267.49 716.53,266.13 719.53,235.74 722.52,207.07 725.51,172.43 728.50,168.83 731.50,239.36 734.49,305.89 737.48,256.12 740.47,153.87 743.47,167.50 746.46,289.89 749.45,343.97 752.45,273.79 755.44,203.82 758.43,202.04 761.42,213.52 764.42,222.71 767.41,258.02 770.40,272.54 773.39,226.96 776.39,205.80 779.38,266.48 782.37,312.81 785.36,275.77 788.36,232.38 791.35,227.08 794.34,197.63 797.34,148.74 800.33,164.89 803.32,235.40 806.31,279.38 809.31,290.45 812.30,287.92 815.29,250.88 818.28,211.36 821.28,231.09 824.27,256.03 827.26,213.35 830.26,187.05 833.25,253.45 836.24,294.27 839.23,214.39 842.23,130.19 845.22,144.34 848.21,191.58 851.20,223.84 854.20,265.21 857.19,267.87 860.18,195.86 863.18,159.40 866.17,218.23 869.16,253.50 872.15,222.67 875.15,241.92 878.14,301.32 881.13,263.40 884.12,173.25 887.12,181.94 890.11,231.71 893.10,192.97 896.09,146.75 899.09,196.94 902.08,244.11 905.07,206.13 908.07,173.83 911.06,188.48 914.05,176.51 917.04,153.10 920.04,187.42 923.03,224.81 926.02,203.85 929.01,192.62 932.01,217.49 935.00,195.99" fill="none" stroke="#1769aa" stroke-width="1.3"/>
<polyline points="525.00,239.93 527.99,242.70 530.99,244.12 533.98,234.74 536.97,214.70 539.96,227.88 542.96,271.50 545.95,284.06 548.94,262.55 551.93,255.36 554.93,249.96 557.92,213.43 560.91,190.20 563.91,223.17 566.90,259.45 569.89,241.50 572.88,197.13 575.88,174.10 578.87,177.48 581.86,194.12 584.85,211.50 587.85,226.74 590.84,256.76 593.83,290.55 596.82,272.83 599.82,212.44 602.81,205.90 605.80,263.49 608.80,267.41 611.79,191.86 614.78,167.43 617.77,245.15 620.77,306.93 623.76,274.73 626.75,215.88 629.74,205.58 632.74,235.42 635.73,261.35 638.72,254.37 641.72,231.94 644.71,249.84 647.70,304.95 650.69,309.85 653.69,242.37 656.68,197.85 659.67,213.63 662.66,209.36 665.66,165.40 668.65,164.90 671.64,216.35 674.64,231.79 677.63,197.37 680.62,189.65 683.61,232.75 686.61,274.15 689.60,274.37 692.59,241.30 695.58,211.90 698.58,220.02 701.57,250.55 704.56,257.39 707.55,237.06 710.55,214.08 713.54,182.02 716.53,151.43 719.53,177.57 722.52,244.12 725.51,252.05 728.50,202.24 731.50,200.13 734.49,233.39 737.48,188.97 740.47,107.88 743.47,143.23 746.46,269.92 749.45,317.91 752.45,266.88 755.44,246.31 758.43,285.90 761.42,292.24 764.42,236.14 767.41,192.98 770.40,214.36 773.39,259.85 776.39,264.09 779.38,233.76 782.37,235.17 785.36,275.42 788.36,282.35 791.35,243.37 794.34,234.13 797.34,261.36 800.33,247.75 803.32,206.33 806.31,225.79 809.31,279.00 812.30,267.54 815.29,218.27 818.28,215.88 821.28,226.98 824.27,195.90 827.26,182.93 830.26,228.90 833.25,246.36 836.24,189.08 839.23,154.35 842.23,210.04 845.22,282.16 848.21,284.64 851.20,236.12 854.20,210.06 857.19,238.02 860.18,276.00 863.18,263.45 866.17,216.51 869.16,201.61 872.15,213.58 875.15,194.62 878.14,165.62 881.13,189.30 884.12,234.17 887.12,234.54 890.11,220.02 893.10,236.12 896.09,240.79 899.09,205.67 902.08,188.08 905.07,215.41 908.07,239.93 911.06,242.70 914.05,244.12 917.04,234.74 920.04,214.70 923.03,227.88 926.02,271.50 929.01,284.06 932.01,262.55 935.00,255.36" fill="none" stroke="#c43b28" stroke-width="1.3"/>
<text x="525.0" y="395" text-anchor="middle">0.00</text>
<text x="716.5328467153284" y="395" text-anchor="middle">8.33</text>
<text x="935.0" y="395" text-anchor="middle">17.84</text>
<text x="515" y="379.0" text-anchor="end">-1.82</text>
<text x="515" y="234.0" text-anchor="end">0.00</text>
<text x="515" y="89.0" text-anchor="end">1.82</text>
<text x="705" y="424">Time (µs)</text>
<text x="470" y="265" transform="rotate(-90 470 265)">Amplitude (normalized)</text>
<text x="570" y="447" fill="#1769aa">I: blue</text><text x="655" y="447" fill="#c43b28">Q: red</text><text x="740" y="447">Shading: CP</text>
</g></svg>